<?xml version="1.0" encoding="utf-8"?>
<!DOCTYPE svg PUBLIC "-//W3C//DTD SVG 1.1//EN" "http://www.w3.org/Graphics/SVG/1.1/DTD/svg11.dtd">
<svg version="1.1" id="图形" xmlns="http://www.w3.org/2000/svg" xmlns:xlink="http://www.w3.org/1999/xlink" x="0px" y="0px" width="1024px" height="1024px" viewBox="0 0 1024 1024" enable-background="new 0 0 1024 1024" xml:space="preserve">
  <path fill="#505050" d="M874.362446-140.243723 146.240177-140.243723c-23.195282 0-41.992393 18.793018-41.992393 41.874713L104.247784 627.44775c0 23.159466 18.797112 41.87369 41.992393 41.87369l70.02689 0 0-41.87369c0-46.237067 37.594223-83.748403 83.98888-83.748403 46.433542 0 84.024695 37.511335 84.024695 83.748403l0 41.87369 41.996486 0 0-41.87369c0-46.237067 37.630039-83.748403 84.024695-83.748403 46.393633 0 83.983763 37.511335 83.983763 83.748403l0 41.87369 42.032302 0 0-41.87369c0-46.237067 37.594223-83.748403 83.98888-83.748403 46.393633 0 84.023672 37.511335 84.023672 83.748403l0 41.87369 70.032006 0c23.194258 0 41.99137-18.714224 41.99137-41.87369l0-725.81676C916.353816-121.450704 897.556705-140.243723 874.362446-140.243723zM762.33907 432.038222 258.263553 432.038222c-23.198352 0-41.996486-18.718317-41.996486-41.87369 0-23.080671 18.797112-41.87369 41.996486-41.87369l504.075517 0c23.199375 0 41.992393 18.794042 41.992393 41.87369C804.331463 413.319905 785.537422 432.038222 762.33907 432.038222zM762.33907 250.58352 258.263553 250.58352c-23.198352 0-41.996486-18.718317-41.996486-41.874713 0-23.080671 18.797112-41.874713 41.996486-41.874713l504.075517 0c23.199375 0 41.992393 18.794042 41.992393 41.874713C804.331463 231.865203 785.537422 250.58352 762.33907 250.58352zM769.318018 69.128819 251.284605 69.128819c-19.352767 0-35.016515-15.625886-35.016515-34.898835 0-19.269879 15.664771-34.891671 35.016515-34.891671l518.033413 0c19.348674 0 35.013445 15.621792 35.013445 34.891671C804.331463 53.502933 788.666692 69.128819 769.318018 69.128819zM720.306768 585.574061c-23.159466 0-41.992393 18.797112-41.992393 41.87369L678.314375 711.196153c0 23.159466 18.832927 41.874713 41.992393 41.874713 23.237237 0 42.031279-18.715247 42.031279-41.874713l0-83.748403C762.33907 604.370149 743.544005 585.574061 720.306768 585.574061zM510.301823 585.574061c-23.199375 0-41.993416 18.797112-41.993416 41.87369L468.308407 711.196153c0 23.159466 18.794042 41.874713 41.993416 41.874713 23.195282 0 41.99137-18.715247 41.99137-41.874713l0-83.748403C552.293193 604.370149 533.497105 585.574061 510.301823 585.574061zM300.255946 585.574061c-23.198352 0-41.992393 18.797112-41.992393 41.87369L258.263553 711.196153c0 23.159466 18.794042 41.874713 41.992393 41.874713s42.032302-18.715247 42.032302-41.874713l0-83.748403C342.288249 604.370149 323.454298 585.574061 300.255946 585.574061z" transform="translate(0, 812) scale(1, -1)"/>
</svg>
