<?xml version="1.0" encoding="utf-8"?>
<!DOCTYPE svg PUBLIC "-//W3C//DTD SVG 1.1//EN" "http://www.w3.org/Graphics/SVG/1.1/DTD/svg11.dtd">
<svg version="1.1" id="图形" xmlns="http://www.w3.org/2000/svg" xmlns:xlink="http://www.w3.org/1999/xlink" x="0px" y="0px" width="1024px" height="1024px" viewBox="0 0 1024 1024" enable-background="new 0 0 1024 1024" xml:space="preserve">
  <path fill="#505050" d="M854.510345 677.82069c-208.331034 190.675862-533.186207 173.02069-720.331034-35.310345s-173.02069-533.186207 35.310345-720.331034c208.331034-190.675862 533.186207-173.02069 720.331034 35.310345C1080.496552 165.82069 1062.841379 490.675862 854.510345 677.82069zM840.386207 3.393103c-162.427586-180.082759-444.910345-194.206897-624.993103-31.77931C35.310345 137.572414 21.186207 416.524138 187.144828 600.137931c162.427586 180.082759 444.910345 194.206897 624.993103 31.77931C988.689655 465.958621 1002.813793 183.475862 840.386207 3.393103zM776.827586 593.075862C617.931034 741.37931 367.227586 727.255172 218.924138 568.358621 74.151724 405.931034 84.744828 155.227586 247.172414 10.455172c162.427586-144.772414 413.131034-134.17931 557.903448 28.248276C949.848276 197.6 939.255172 448.303448 776.827586 593.075862zM681.489655 342.372414l0-49.434483-123.586207-3.531034 0-70.62069 123.586207 3.531034 0-49.434483-123.586207-3.531034-3.531034-187.144828-63.558621 0 3.531034 187.144828-127.117241-3.531034 0 49.434483 127.117241 3.531034 0 70.62069-127.117241-3.531034 0 49.434483 109.462069 0L342.510345 564.827586l70.62069 0c63.558621-112.993103 102.4-183.613793 116.524138-211.862069l0 0c3.531034 14.124138 17.655172 38.841379 35.310345 77.682759l74.151724 141.241379 67.089655 0-130.648276-229.517241L681.489655 342.372414z" transform="translate(0, 812) scale(1, -1)"/>
</svg>
